<svg xmlns="http://www.w3.org/2000/svg" viewBox="0 0 48 48">
  <rect width="48" height="48" rx="12" fill="#f7fafb"/>
  <path fill="#f4c94a" d="M35 2.8a2 2 0 0 1 2 2v2.1a2 2 0 0 1-4 0V4.8a2 2 0 0 1 2-2ZM35 22.9a2 2 0 0 1 2 2V27a2 2 0 0 1-4 0v-2.1a2 2 0 0 1 2-2ZM46.2 14.9a2 2 0 0 1-2 2h-2.1a2 2 0 0 1 0-4h2.1a2 2 0 0 1 2 2ZM28 14.9a2 2 0 0 1-2 2h-2.1a2 2 0 0 1 0-4H26a2 2 0 0 1 2 2ZM43 6.9a2 2 0 0 1 0 2.8l-1.5 1.5a2 2 0 1 1-2.8-2.8l1.5-1.5a2 2 0 0 1 2.8 0ZM31.3 18.6a2 2 0 0 1 0 2.8l-1.5 1.5a2 2 0 1 1-2.8-2.8l1.5-1.5a2 2 0 0 1 2.8 0ZM27 6.9a2 2 0 0 1 2.8 0l1.5 1.5a2 2 0 1 1-2.8 2.8L27 9.7a2 2 0 0 1 0-2.8ZM38.7 18.6a2 2 0 0 1 2.8 0L43 20.1a2 2 0 1 1-2.8 2.8l-1.5-1.5a2 2 0 0 1 0-2.8ZM35 8a7 7 0 1 1 0 14 7 7 0 0 1 0-14Z"/>
  <path fill="#2e7189" d="M16.2 16.2A11.8 11.8 0 0 1 38.4 20a8.3 8.3 0 0 1-1 16.5H13.6a9.7 9.7 0 0 1 2.6-20.3Z"/>
</svg>
